<?xml version="1.0" encoding="UTF-8" standalone="no"?>
<!DOCTYPE svg PUBLIC "-//W3C//DTD SVG 1.1//EN"
 "http://www.w3.org/Graphics/SVG/1.1/DTD/svg11.dtd">
<!-- Generated by graphviz version 2.40.1 (20161225.0304)
 -->
<!-- Title: matter Pages: 1 -->
<svg width="387pt" height="52pt"
 viewBox="0.00 0.00 386.76 51.94" xmlns="http://www.w3.org/2000/svg" xmlns:xlink="http://www.w3.org/1999/xlink">
<g id="graph0" class="graph" transform="scale(1 1) rotate(0) translate(4 47.9435)">
<title>matter</title>
<polygon fill="#ffffff" stroke="transparent" points="-4,4 -4,-47.9435 382.759,-47.9435 382.759,4 -4,4"/>
<!-- solid -->
<g id="node1" class="node">
<title>solid</title>
<ellipse fill="none" stroke="#000000" cx="29.8164" cy="-25.9435" rx="29.6339" ry="18"/>
<text text-anchor="middle" x="29.8164" y="-21.7435" font-family="Times,serif" font-size="14.00" fill="#000000">solid</text>
</g>
<!-- liquid -->
<g id="node2" class="node">
<title>liquid</title>
<ellipse fill="none" stroke="#000000" cx="180.5353" cy="-25.9435" rx="33.646" ry="18"/>
<text text-anchor="middle" x="180.5353" y="-21.7435" font-family="Times,serif" font-size="14.00" fill="#000000">liquid</text>
</g>
<!-- solid&#45;&gt;liquid -->
<g id="edge1" class="edge">
<title>solid&#45;&gt;liquid</title>
<path fill="none" stroke="#000000" d="M59.9543,-25.9435C81.9032,-25.9435 111.9737,-25.9435 136.5942,-25.9435"/>
<polygon fill="#000000" stroke="#000000" points="136.7726,-29.4436 146.7726,-25.9435 136.7726,-22.4436 136.7726,-29.4436"/>
<text text-anchor="middle" x="103.2975" y="-30.1435" font-family="Times,serif" font-size="14.00" fill="#000000">MELT</text>
</g>
<!-- liquid&#45;&gt;solid -->
<g id="edge2" class="edge">
<title>liquid&#45;&gt;solid</title>
<path fill="none" stroke="#000000" d="M155.6812,-13.684C147.3895,-10.2056 137.9661,-6.8908 128.9623,-5.1435 106.567,-.7974 99.9675,-.496 77.6327,-5.1435 72.4479,-6.2224 67.1357,-7.8943 62.0252,-9.832"/>
<polygon fill="#000000" stroke="#000000" points="60.4093,-6.7139 52.5324,-13.7995 63.1087,-13.1725 60.4093,-6.7139"/>
<text text-anchor="middle" x="103.2975" y="-9.1435" font-family="Times,serif" font-size="14.00" fill="#000000">FREEZE</text>
</g>
<!-- gas -->
<g id="node3" class="node">
<title>gas</title>
<ellipse fill="none" stroke="#000000" cx="351.759" cy="-25.9435" rx="27" ry="18"/>
<text text-anchor="middle" x="351.759" y="-21.7435" font-family="Times,serif" font-size="14.00" fill="#000000">gas</text>
</g>
<!-- liquid&#45;&gt;gas -->
<g id="edge3" class="edge">
<title>liquid&#45;&gt;gas</title>
<path fill="none" stroke="#000000" d="M214.3636,-25.9435C243.3078,-25.9435 284.9014,-25.9435 314.7314,-25.9435"/>
<polygon fill="#000000" stroke="#000000" points="314.7521,-29.4436 324.7521,-25.9435 314.752,-22.4436 314.7521,-29.4436"/>
<text text-anchor="middle" x="269.4336" y="-30.1435" font-family="Times,serif" font-size="14.00" fill="#000000">VAPORIZE</text>
</g>
<!-- gas&#45;&gt;liquid -->
<g id="edge4" class="edge">
<title>gas&#45;&gt;liquid</title>
<path fill="none" stroke="#000000" d="M330.9074,-14.0246C323.5219,-10.428 314.9967,-6.9552 306.759,-5.1435 274.3553,1.9831 264.6787,1.1772 232.1082,-5.1435 226.4809,-6.2355 220.6896,-7.9399 215.1131,-9.9138"/>
<polygon fill="#000000" stroke="#000000" points="213.4478,-6.8056 205.3894,-13.684 215.9783,-13.3322 213.4478,-6.8056"/>
<text text-anchor="middle" x="269.4336" y="-9.1435" font-family="Times,serif" font-size="14.00" fill="#000000">CONDENSE</text>
</g>
</g>
</svg>
