<?xml version="1.0" encoding="UTF-8" standalone="no"?>
<!DOCTYPE svg PUBLIC "-//W3C//DTD SVG 1.1//EN"
 "http://www.w3.org/Graphics/SVG/1.1/DTD/svg11.dtd">
<!-- Generated by graphviz version 2.40.1 (20161225.0304)
 -->
<!-- Title: matter Pages: 1 -->
<svg width="155pt" height="222pt"
 viewBox="0.00 0.00 155.03 221.60" xmlns="http://www.w3.org/2000/svg" xmlns:xlink="http://www.w3.org/1999/xlink">
<g id="graph0" class="graph" transform="scale(1 1) rotate(0) translate(4 217.6)">
<title>matter</title>
<polygon fill="#ffffff" stroke="transparent" points="-4,4 -4,-217.6 151.0314,-217.6 151.0314,4 -4,4"/>
<!-- solid -->
<g id="node1" class="node">
<title>solid</title>
<ellipse fill="none" stroke="#000000" cx="47.3806" cy="-195.6" rx="29.6339" ry="18"/>
<text text-anchor="middle" x="47.3806" y="-191.4" font-family="Times,serif" font-size="14.00" fill="#000000">solid</text>
</g>
<!-- liquid -->
<g id="node2" class="node">
<title>liquid</title>
<ellipse fill="none" stroke="#000000" cx="47.3806" cy="-106.8" rx="33.646" ry="18"/>
<text text-anchor="middle" x="47.3806" y="-102.6" font-family="Times,serif" font-size="14.00" fill="#000000">liquid</text>
</g>
<!-- solid&#45;&gt;liquid -->
<g id="edge1" class="edge">
<title>solid&#45;&gt;liquid</title>
<path fill="none" stroke="#000000" d="M31.116,-180.2288C25.9846,-174.3276 20.9577,-167.1769 18.2782,-159.6 15.7887,-152.5606 15.7887,-149.8394 18.2782,-142.8 19.7963,-138.5072 22.0679,-134.3512 24.6851,-130.4818"/>
<polygon fill="#000000" stroke="#000000" points="27.4822,-132.586 30.8082,-122.5268 21.9351,-128.3163 27.4822,-132.586"/>
<text text-anchor="middle" x="37.4318" y="-147" font-family="Times,serif" font-size="14.00" fill="#000000">MELT</text>
</g>
<!-- liquid&#45;&gt;solid -->
<g id="edge2" class="edge">
<title>liquid&#45;&gt;solid</title>
<path fill="none" stroke="#000000" d="M52.7425,-124.5825C54.2307,-130.3393 55.6406,-136.7896 56.3806,-142.8 57.2929,-150.2107 57.2929,-152.1893 56.3806,-159.6 56.0453,-162.3235 55.5724,-165.1373 55.0171,-167.9359"/>
<polygon fill="#000000" stroke="#000000" points="51.5749,-167.2872 52.7425,-177.8175 58.3965,-168.8575 51.5749,-167.2872"/>
<text text-anchor="middle" x="82.0454" y="-147" font-family="Times,serif" font-size="14.00" fill="#000000">FREEZE</text>
</g>
<!-- gas -->
<g id="node3" class="node">
<title>gas</title>
<ellipse fill="none" stroke="#000000" cx="47.3806" cy="-18" rx="27" ry="18"/>
<text text-anchor="middle" x="47.3806" y="-13.8" font-family="Times,serif" font-size="14.00" fill="#000000">gas</text>
</g>
<!-- liquid&#45;&gt;gas -->
<g id="edge3" class="edge">
<title>liquid&#45;&gt;gas</title>
<path fill="none" stroke="#000000" d="M23.287,-93.7375C15.016,-87.9029 6.7061,-80.1992 2.1758,-70.8 -4.2282,-57.5134 5.7876,-44.878 18.0039,-35.3007"/>
<polygon fill="#000000" stroke="#000000" points="20.0782,-38.1205 26.1991,-29.4726 16.0213,-32.4159 20.0782,-38.1205"/>
<text text-anchor="middle" x="36.983" y="-58.2" font-family="Times,serif" font-size="14.00" fill="#000000">VAPORIZE</text>
</g>
<!-- gas&#45;&gt;liquid -->
<g id="edge4" class="edge">
<title>gas&#45;&gt;liquid</title>
<path fill="none" stroke="#000000" d="M60.8303,-33.8031C65.0656,-39.7449 69.2038,-46.8107 71.3806,-54 73.5443,-61.1463 73.5443,-63.6537 71.3806,-70.8 70.2704,-74.4665 68.6501,-78.1009 66.7669,-81.5705"/>
<polygon fill="#000000" stroke="#000000" points="63.6584,-79.9409 61.338,-90.2785 69.5986,-83.6443 63.6584,-79.9409"/>
<text text-anchor="middle" x="109.706" y="-58.2" font-family="Times,serif" font-size="14.00" fill="#000000">CONDENSE</text>
</g>
</g>
</svg>
