<?xml version="1.0" encoding="UTF-8" standalone="no"?>
<!DOCTYPE svg PUBLIC "-//W3C//DTD SVG 1.1//EN"
 "http://www.w3.org/Graphics/SVG/1.1/DTD/svg11.dtd">
<!-- Generated by graphviz version 2.40.1 (20161225.0304)
 -->
<!-- Title: video Pages: 1 -->
<svg width="396pt" height="108pt"
 viewBox="0.00 0.00 396.42 107.81" xmlns="http://www.w3.org/2000/svg" xmlns:xlink="http://www.w3.org/1999/xlink">
<g id="graph0" class="graph" transform="scale(1 1) rotate(0) translate(4 103.8051)">
<title>video</title>
<polygon fill="#ffffff" stroke="transparent" points="-4,4 -4,-103.8051 392.4189,-103.8051 392.4189,4 -4,4"/>
<!-- playing -->
<g id="node1" class="node">
<title>playing</title>
<ellipse fill="none" stroke="#000000" cx="40.0044" cy="-50.0051" rx="40.0089" ry="18"/>
<text text-anchor="middle" x="40.0044" y="-45.8051" font-family="Times,serif" font-size="14.00" fill="#000000">playing</text>
</g>
<!-- stopped -->
<g id="node2" class="node">
<title>stopped</title>
<ellipse fill="none" stroke="#000000" cx="347.3425" cy="-49.0051" rx="41.1529" ry="18"/>
<text text-anchor="middle" x="347.3425" y="-44.8051" font-family="Times,serif" font-size="14.00" fill="#000000">stopped</text>
</g>
<!-- playing&#45;&gt;stopped -->
<g id="edge3" class="edge">
<title>playing&#45;&gt;stopped</title>
<path fill="none" stroke="#000000" d="M70.3243,-61.968C79.1324,-65.029 88.8489,-68.0144 98.0089,-70.0051 180.6388,-87.9629 205.8951,-89.115 288.2662,-70.0051 294.5288,-68.5522 301.0463,-66.6519 307.3676,-64.588"/>
<polygon fill="#000000" stroke="#000000" points="308.756,-67.8118 317.0749,-61.2508 306.4802,-61.1921 308.756,-67.8118"/>
<text text-anchor="middle" x="198.1908" y="-87.2051" font-family="Times,serif" font-size="14.00" fill="#000000">STOP</text>
</g>
<!-- paused -->
<g id="node3" class="node">
<title>paused</title>
<ellipse fill="none" stroke="#000000" cx="198.1908" cy="-49.0051" rx="37.7025" ry="18"/>
<text text-anchor="middle" x="198.1908" y="-44.8051" font-family="Times,serif" font-size="14.00" fill="#000000">paused</text>
</g>
<!-- playing&#45;&gt;paused -->
<g id="edge5" class="edge">
<title>playing&#45;&gt;paused</title>
<path fill="none" stroke="#000000" d="M80.3308,-49.7502C101.5087,-49.6163 127.6129,-49.4513 149.867,-49.3106"/>
<polygon fill="#000000" stroke="#000000" points="150.138,-52.809 160.1157,-49.2458 150.0937,-45.8092 150.138,-52.809"/>
<text text-anchor="middle" x="120.1744" y="-53.2051" font-family="Times,serif" font-size="14.00" fill="#000000">PAUSE</text>
</g>
<!-- stopped&#45;&gt;playing -->
<g id="edge1" class="edge">
<title>stopped&#45;&gt;playing</title>
<path fill="none" stroke="#000000" d="M320.751,-35.2542C298.7182,-24.6768 266.2362,-10.9325 236.0418,-5.2051 175.1516,6.3448 156.0715,-3.3316 98.0089,-25.0051 91.4516,-27.4528 84.5583,-30.234 77.9042,-33.0304"/>
<polygon fill="#000000" stroke="#000000" points="76.2096,-29.9485 68.3934,-37.101 78.9639,-36.3839 76.2096,-29.9485"/>
<text text-anchor="middle" x="198.1908" y="-10.2051" font-family="Times,serif" font-size="14.00" fill="#000000">PLAY</text>
</g>
<!-- paused&#45;&gt;playing -->
<g id="edge2" class="edge">
<title>paused&#45;&gt;playing</title>
<path fill="none" stroke="#000000" d="M168.4551,-37.6609C160.1288,-35 150.9881,-32.5499 142.3399,-31.2051 122.8712,-28.1777 117.4701,-28.13 98.0089,-31.2051 92.1142,-32.1365 86.0028,-33.5694 80.056,-35.2378"/>
<polygon fill="#000000" stroke="#000000" points="78.8155,-31.9568 70.2707,-38.2208 80.8567,-38.6526 78.8155,-31.9568"/>
<text text-anchor="middle" x="120.1744" y="-36.2051" font-family="Times,serif" font-size="14.00" fill="#000000">PLAY</text>
</g>
<!-- paused&#45;&gt;stopped -->
<g id="edge4" class="edge">
<title>paused&#45;&gt;stopped</title>
<path fill="none" stroke="#000000" d="M236.214,-49.0051C254.4413,-49.0051 276.5389,-49.0051 296.213,-49.0051"/>
<polygon fill="#000000" stroke="#000000" points="296.247,-52.5052 306.2469,-49.0051 296.2469,-45.5052 296.247,-52.5052"/>
<text text-anchor="middle" x="271.154" y="-53.2051" font-family="Times,serif" font-size="14.00" fill="#000000">STOP</text>
</g>
</g>
</svg>
